<svg width="144" height="37" viewBox="0 0 144 37" fill="none" xmlns="http://www.w3.org/2000/svg">
<g clip-path="url(#clip0_4875_29553)">
<path d="M52.8971 17.1088C52.8195 7.62691 41.0754 3.09961e-06 26.6489 3.09961e-06H26.3063C21.6362 -0.00190282 17.0075 0.875161 12.6619 2.5854C5.35814 5.50043 0.381255 10.6712 0.0322266 16.5982C0.0322266 16.7663 0.0322266 16.9279 0.0322266 17.0895C0.0322266 17.251 0.0322266 17.2381 0.0322266 17.3092V17.3868C0.0322266 17.432 0.0322266 17.4837 0.0322266 17.529V18.3175C0.0322266 18.3175 0.0322266 18.3822 0.0322266 18.4209V18.5373C0.0322266 18.673 0.0322266 18.8087 0.0322266 18.938C0.0322266 19.0673 0.0322266 19.1836 0.0322266 19.3C0.31662 24.0248 2.87616 28.3101 7.30365 31.4449C12.1189 34.8511 18.6471 36.6157 26.1964 36.6157H26.6036C34.3598 36.551 41.0172 34.6443 45.8454 31.1023C50.4345 27.7284 52.9552 23.1005 52.9035 18.0719L52.8971 17.1088Z" fill="#2D3277"/>
<path d="M23.8636 24.4837C24.1 24.385 24.3512 24.3261 24.6069 24.3092C24.8866 24.2575 25.1743 24.268 25.4496 24.3399C25.7249 24.4118 25.9809 24.5434 26.1996 24.7254C26.4183 24.9074 26.5943 25.1352 26.7151 25.3928C26.8358 25.6504 26.8984 25.9315 26.8984 26.216C26.8984 26.5005 26.8358 26.7815 26.7151 27.0391C26.5943 27.2967 26.4183 27.5245 26.1996 27.7065C25.9809 27.8885 25.7249 28.0201 25.4496 28.092C25.1743 28.1639 24.8866 28.1744 24.6069 28.1227V28.1227C24.1183 28.1265 23.6473 27.9407 23.2929 27.6044C22.9385 27.2681 22.7283 26.8075 22.7066 26.3194C22.7066 25.8863 22.4545 25.8217 22.3188 25.8217C22.2503 25.8261 22.1835 25.8444 22.1224 25.8755C22.0613 25.9066 22.0071 25.9499 21.9633 26.0027C21.7339 26.2487 21.4198 26.3988 21.0843 26.4228C20.875 26.4222 20.6681 26.3782 20.4767 26.2935C20.1501 26.2069 19.8663 26.0042 19.6784 25.7235C19.4904 25.4427 19.4112 25.1031 19.4555 24.7681C19.4725 24.702 19.4732 24.6327 19.4574 24.5663C19.4416 24.4998 19.4099 24.4382 19.365 24.3868C19.3049 24.3332 19.231 24.2973 19.1517 24.2834C19.0905 24.276 19.0285 24.2814 18.9696 24.2992C18.9106 24.317 18.856 24.3468 18.8091 24.3868C18.541 24.6162 18.2142 24.7662 17.8654 24.8199C17.696 24.8143 17.5283 24.7838 17.3678 24.7294C16.907 24.5843 16.5156 24.2751 16.2677 23.8604C16.0199 23.4458 15.9329 22.9546 16.0233 22.4801C16.0426 22.4134 16.0411 22.3426 16.0192 22.2768C15.9973 22.211 15.9559 22.1534 15.9005 22.1117C15.7325 22.0082 15.5709 22.1634 15.4675 22.2668C15.3504 22.3817 15.2086 22.4683 15.0528 22.5198C14.8971 22.5714 14.7316 22.5865 14.5691 22.5641C14.1802 22.5362 13.8151 22.3669 13.5424 22.0883C13.2697 21.8097 13.1084 21.441 13.0889 21.0516C13.0872 20.8615 13.123 20.6729 13.1942 20.4966C13.2654 20.3203 13.3706 20.1597 13.5038 20.0241C13.6371 19.8884 13.7957 19.7804 13.9707 19.706C14.1458 19.6317 14.3337 19.5926 14.5238 19.5909C14.8571 19.5482 15.1941 19.633 15.4674 19.8284C15.7408 20.0238 15.9301 20.3153 15.9975 20.6444C15.9975 20.6444 15.9975 20.7026 15.9975 20.7349C15.9975 20.7672 16.0363 21.0258 16.1849 21.071C16.3336 21.1163 16.4564 20.9676 16.5275 20.8577C16.5409 20.8315 16.5584 20.8075 16.5792 20.7866L16.6245 20.7285C16.8049 20.4683 17.0537 20.2631 17.3434 20.1354C17.6331 20.0076 17.9524 19.9624 18.2662 20.0046C18.4848 20.0097 18.702 20.0423 18.9125 20.1015C19.2189 20.2106 19.4812 20.4167 19.6597 20.6885C19.8382 20.9604 19.9231 21.283 19.9014 21.6075C19.8997 21.7024 19.9353 21.7942 20.0006 21.8631C20.0659 21.932 20.1556 21.9725 20.2505 21.9759V21.9759C20.3089 21.9716 20.3659 21.9557 20.418 21.929C20.4702 21.9024 20.5165 21.8656 20.5543 21.8208C20.6912 21.6518 20.8608 21.512 21.0529 21.4099C21.245 21.3077 21.4557 21.2452 21.6724 21.2262C21.9557 21.2285 22.2353 21.2902 22.4933 21.4071C23.8829 21.9888 23.256 23.7663 23.2495 23.7857C23.1655 23.9925 23.0298 24.3416 23.3206 24.529L23.3788 24.5613H23.4951C23.6021 24.5526 23.7069 24.5264 23.8054 24.4837H23.8636Z" fill="white"/>
<path d="M51.4621 15.06C47.7504 15.926 44.1279 17.1378 40.6422 18.6795C38.1409 16.5336 32.356 11.5697 30.7919 10.4386C30.165 9.92301 29.4546 9.51858 28.6912 9.24282C28.3504 9.13598 27.9948 9.08363 27.6377 9.08769C27.1978 9.10196 26.7623 9.18035 26.345 9.32038C25.2307 9.78798 24.2053 10.4439 23.3136 11.2594L23.2554 11.3047C22.3699 12.0221 21.4586 12.759 20.7864 12.9141C20.4878 12.9856 20.182 13.0225 19.875 13.024V13.024C19.2989 13.0685 18.7265 12.9007 18.2656 12.5521C18.2839 12.5122 18.3078 12.4752 18.3367 12.4422L20.5149 10.0508C22.2019 8.33793 23.7919 6.72206 27.4761 6.60571H27.6571C29.3367 6.65285 30.9906 7.03063 32.5241 7.71743C34.6432 8.747 36.9677 9.28394 39.3237 9.28807C41.8475 9.2285 44.3284 8.62207 46.5951 7.51061C49.1029 9.67587 50.8481 12.2483 51.4621 15.06Z" fill="white"/>
<path d="M26.3193 1.17643H26.6489C30.1319 1.1663 33.5994 1.64052 36.9517 2.58547L37.1715 2.6501L37.6239 2.7923C40.3843 3.64027 42.9917 4.92325 45.3478 6.59283C43.4322 7.45199 41.3644 7.92004 39.2656 7.96955H39.1816C37.0569 7.95508 34.9626 7.46245 33.0542 6.5282C31.3588 5.77061 29.5325 5.34916 27.6766 5.28721H27.3922C25.1439 5.27298 22.9643 6.06139 21.2454 7.51065C20.21 7.57806 19.1872 7.77566 18.2011 8.09882C17.527 8.3311 16.8249 8.4724 16.1134 8.51895H15.3895H15.2667C12.7194 8.09314 10.2178 7.42878 7.79492 6.53466C12.565 3.15425 19.287 1.21521 26.3193 1.17643Z" fill="#FFD100"/>
<path d="M6.59885 7.43945C9.94693 8.77739 13.825 9.72753 15.0014 9.79216H15.2599C15.5314 9.79216 15.8093 9.79216 16.0872 9.82448C16.9257 9.77939 17.7541 9.62066 18.5498 9.35264C18.8795 9.25569 19.1962 9.1652 19.5258 9.08117L19.4806 9.13288L17.2701 11.5632C17.0796 11.7389 16.9463 11.9678 16.8875 12.2202C16.8287 12.4726 16.8471 12.7369 16.9404 12.9787C17.0801 13.2765 17.305 13.5262 17.5868 13.6961C18.3383 14.1217 19.1926 14.3319 20.0558 14.3037C20.3864 14.3044 20.716 14.2676 21.0383 14.1938C22.0013 13.9676 22.9773 13.1726 24.0438 12.3194C24.8823 11.5806 25.8423 10.9924 26.8813 10.5807C27.1324 10.5139 27.3906 10.477 27.6504 10.4708H27.8443C28.6352 10.5982 29.3743 10.9454 29.9773 11.4727C31.7289 12.7654 39.2136 19.2289 40.0797 19.9398C40.2224 20.0751 40.3352 20.2387 40.4109 20.4201C40.4866 20.6016 40.5235 20.7968 40.5192 20.9934C40.5046 21.1807 40.4453 21.3617 40.3464 21.5214C40.2474 21.6811 40.1116 21.8147 39.9504 21.9112C39.6618 22.1074 39.3233 22.2173 38.9745 22.2279C38.6826 22.2274 38.3964 22.1469 38.1471 21.9952L37.9403 21.8142C37.2487 21.1679 35.1481 19.3129 34.282 18.5825C34.1288 18.4159 33.9192 18.3122 33.6938 18.2916C33.6291 18.2909 33.5651 18.3051 33.5068 18.3331C33.4485 18.3611 33.3975 18.4022 33.3577 18.4532C33.1638 18.6988 33.2672 19.0414 33.6098 19.3258L36.8932 22.5575C37.1053 22.7621 37.2458 23.0295 37.2939 23.3202C37.3061 23.5667 37.2474 23.8115 37.1248 24.0257C37.0023 24.2398 36.821 24.4145 36.6024 24.5289C36.2931 24.7535 35.9243 24.8817 35.5423 24.8973C35.2585 24.8975 34.9805 24.8168 34.7409 24.6646L34.2367 24.1799C33.39 23.359 32.511 22.5123 31.8646 21.9823C31.7081 21.8249 31.5032 21.7247 31.2829 21.6979V21.6979C31.2219 21.6967 31.1615 21.7088 31.1057 21.7334C31.0498 21.758 31.0001 21.7944 30.9597 21.8401C30.8692 21.9435 30.7529 22.1762 31.0114 22.4864C31.0647 22.5554 31.123 22.6202 31.1859 22.6804L33.5774 25.3239C33.6941 25.4479 33.7638 25.6088 33.7744 25.7788C33.785 25.9487 33.7359 26.1171 33.6356 26.2547L33.5645 26.3516C33.4934 26.4292 33.4223 26.4938 33.3577 26.552C33.054 26.7788 32.683 26.8971 32.3041 26.8881C32.2075 26.8984 32.11 26.8984 32.0133 26.8881C31.7418 26.8428 31.6642 26.7782 31.6384 26.7459L31.5608 26.6683C30.8827 25.9597 30.1663 25.2887 29.415 24.6582C29.2667 24.505 29.0706 24.407 28.8591 24.3802V24.3802C28.7965 24.3822 28.7349 24.397 28.6782 24.4237C28.6215 24.4504 28.5709 24.4884 28.5295 24.5354C28.3291 24.7551 28.4196 25.0848 28.7557 25.4015L30.559 27.4052C30.5138 27.4763 30.3134 27.696 29.6218 27.7865C29.5336 27.7929 29.445 27.7929 29.3568 27.7865C28.742 27.7526 28.142 27.5849 27.5987 27.2953C27.7539 26.9113 27.833 26.5008 27.8314 26.0866C27.823 25.2538 27.4889 24.4573 26.9006 23.8678C26.3122 23.2783 25.5165 22.9425 24.6837 22.9324C24.7182 22.3659 24.5772 21.8026 24.28 21.3191C23.9827 20.8357 23.5436 20.4556 23.0226 20.2307C22.6143 20.0535 22.1749 19.9591 21.7299 19.9528C21.4422 19.9521 21.1562 19.9979 20.8832 20.0885C20.5432 19.5175 20.0048 19.0918 19.3707 18.8928C19.0067 18.759 18.6207 18.6954 18.2331 18.7053C17.6442 18.7022 17.0679 18.8755 16.5785 19.203C16.3266 18.9232 16.0185 18.6997 15.6744 18.5471C15.3302 18.3946 14.9577 18.3163 14.5813 18.3175V18.3175C13.9104 18.3204 13.2649 18.574 12.7715 19.0285C12.0023 18.4855 9.42986 16.986 2.97284 15.577C2.68198 15.5123 2.04856 15.3378 1.51855 15.1892C2.06149 12.3711 3.83248 9.69521 6.59885 7.43945Z" fill="white"/>
<path d="M51.6818 18.1496C51.6818 18.3607 51.656 18.5762 51.6043 18.7959C51.0355 22.4607 48.547 25.9058 44.4427 28.5493C39.6921 31.6453 33.3514 33.384 26.597 33.4422H26.2545C12.4679 33.4422 1.25372 26.3324 1.18262 17.5097C1.18262 17.2318 1.18262 16.9215 1.2214 16.579L2.62398 16.9021C8.98405 18.2595 11.3626 19.6944 11.9572 20.1339C11.8509 20.4303 11.7984 20.7433 11.8021 21.0581C11.8072 21.7765 12.0962 22.4636 12.6059 22.9698C13.1157 23.4759 13.8049 23.7599 14.5233 23.7599C14.6459 23.7695 14.7691 23.7695 14.8917 23.7599C15.0201 24.2618 15.2709 24.724 15.6217 25.1053C15.9725 25.4865 16.4123 25.7749 16.9018 25.9445C17.3661 26.1277 17.8734 26.1726 18.3626 26.0738C18.7004 26.7465 19.287 27.2611 19.9978 27.5087C20.3439 27.6442 20.7121 27.7143 21.0837 27.7155C21.3039 27.7009 21.5212 27.6574 21.73 27.5863C21.9877 28.1276 22.3933 28.5848 22.9001 28.9051C23.4068 29.2254 23.9939 29.3956 24.5934 29.396V29.396C25.4089 29.383 26.1893 29.062 26.778 28.4976C27.5566 28.9197 28.4205 29.1606 29.3052 29.2021C29.4416 29.2015 29.5777 29.1907 29.7124 29.1698C30.067 29.1575 30.4147 29.0685 30.7316 28.9089C31.0485 28.7494 31.327 28.523 31.5481 28.2455L31.6062 28.1615C31.8471 28.2229 32.0945 28.2555 32.3431 28.2585C32.9774 28.2371 33.5876 28.0103 34.0818 27.6121C34.5642 27.2751 34.9193 26.7856 35.0901 26.2225H35.5102C36.1471 26.208 36.7654 26.0056 37.2877 25.6408C37.6635 25.4208 37.9786 25.1106 38.2044 24.7381C38.4301 24.3657 38.5593 23.9428 38.5804 23.5078C38.7138 23.5175 38.8477 23.5175 38.9811 23.5078C39.5767 23.497 40.1561 23.3128 40.6487 22.9778C40.9816 22.7691 41.2605 22.4846 41.4627 22.1477C41.6649 21.8107 41.7846 21.4307 41.8121 21.0388C41.8422 20.5599 41.7416 20.0818 41.5212 19.6556C44.7972 18.3108 48.1754 17.2301 51.6237 16.4238C51.6237 16.7082 51.6754 16.9862 51.6754 17.277C51.6754 17.5679 51.7012 17.8781 51.6818 18.1496Z" fill="#FFD100"/>
<path d="M142.598 6.33421C141.65 5.14493 140.206 4.55029 138.267 4.55029C136.328 4.55029 134.885 5.14493 133.937 6.33421C133.01 7.55243 132.509 9.04065 132.509 10.571C132.509 12.1014 133.01 13.5896 133.937 14.8078C134.885 15.9799 136.328 16.5659 138.267 16.5659C140.206 16.5659 141.65 15.9734 142.598 14.7885C143.524 13.5702 144.025 12.082 144.025 10.5516C144.025 9.02126 143.524 7.53304 142.598 6.31482V6.33421ZM140.245 13.1726C139.999 13.4604 139.694 13.6915 139.35 13.85C139.007 14.0084 138.633 14.0905 138.254 14.0905C137.876 14.0905 137.502 14.0084 137.158 13.85C136.814 13.6915 136.509 13.4604 136.263 13.1726C135.81 12.3782 135.572 11.4793 135.572 10.5646C135.572 9.64986 135.81 8.75096 136.263 7.95654C136.509 7.66873 136.814 7.43763 137.158 7.27917C137.502 7.1207 137.876 7.03863 138.254 7.03863C138.633 7.03863 139.007 7.1207 139.35 7.27917C139.694 7.43763 139.999 7.66873 140.245 7.95654C140.698 8.75096 140.937 9.64986 140.937 10.5646C140.937 11.4793 140.698 12.3782 140.245 13.1726V13.1726Z" fill="#2D3277"/>
<path d="M118.256 5.33872C117.228 4.83273 116.093 4.58009 114.947 4.60189C113.008 4.60189 111.715 5.09957 110.901 6.09495C110.384 6.80715 110.093 7.6585 110.067 8.53815H112.924C112.968 8.15991 113.113 7.80052 113.344 7.49752C113.542 7.30805 113.778 7.16369 114.037 7.07442C114.296 6.98515 114.571 6.95309 114.843 6.98044C115.338 6.95087 115.833 7.04181 116.285 7.24545C116.448 7.34199 116.581 7.48337 116.667 7.65288C116.753 7.82239 116.789 8.01295 116.77 8.20204C116.767 8.39308 116.703 8.57814 116.586 8.72958C116.47 8.88102 116.307 8.99072 116.123 9.0423C115.742 9.18108 115.344 9.26803 114.94 9.30083L113.926 9.43011C113.026 9.50794 112.149 9.75347 111.34 10.154C110.814 10.4545 110.383 10.8968 110.096 11.4305C109.809 11.9642 109.678 12.5678 109.718 13.1725C109.691 13.6361 109.767 14.0999 109.942 14.5304C110.116 14.9608 110.384 15.347 110.726 15.6609C111.459 16.2453 112.374 16.554 113.312 16.5335C119.775 16.8243 119.691 13.1337 119.775 12.3645V8.11801C119.704 6.76068 119.226 5.82995 118.256 5.33872ZM116.763 11.8022C116.798 12.1864 116.738 12.5732 116.589 12.9291C116.441 13.285 116.207 13.5992 115.91 13.8447C115.388 14.2127 114.765 14.4092 114.126 14.407C113.753 14.4157 113.388 14.2971 113.092 14.0709C112.939 13.9347 112.82 13.764 112.746 13.5729C112.672 13.3819 112.644 13.176 112.665 12.9721C112.653 12.7187 112.712 12.467 112.835 12.2453C112.958 12.0237 113.141 11.8411 113.363 11.7182C113.792 11.5152 114.25 11.38 114.721 11.3174L115.367 11.1882C115.637 11.1448 115.903 11.0778 116.162 10.9878C116.362 10.9114 116.555 10.8162 116.737 10.7034L116.763 11.8022Z" fill="#2D3277"/>
<path d="M103.545 7.13573C103.851 7.11195 104.158 7.16107 104.441 7.27905C104.725 7.39703 104.976 7.5805 105.174 7.81439C105.413 8.15152 105.566 8.54207 105.62 8.95196H108.807C108.632 7.34902 108.07 6.22437 107.12 5.59095C106.02 4.91555 104.744 4.58464 103.455 4.64082C102.692 4.59896 101.929 4.72158 101.217 5.00037C100.506 5.27916 99.8626 5.70761 99.3312 6.25669C98.2684 7.51576 97.7335 9.13685 97.8381 10.7811C97.7685 12.2925 98.2483 13.778 99.189 14.963C100.094 16.0424 101.496 16.5789 103.41 16.5789C104.236 16.6313 105.062 16.4822 105.817 16.1445C106.573 15.8067 107.235 15.2903 107.747 14.6398C108.328 13.9085 108.683 13.0234 108.768 12.0932H105.601C105.56 12.6206 105.364 13.1243 105.038 13.541C104.839 13.745 104.595 13.9009 104.327 13.9972C104.058 14.0935 103.771 14.1276 103.487 14.0969C103.032 14.1276 102.58 14.0067 102.201 13.7529C101.822 13.4991 101.538 13.1268 101.393 12.6943C101.164 12.0566 101.058 11.3809 101.083 10.7036C101.058 9.99457 101.163 9.28702 101.393 8.61586C101.537 8.16548 101.826 7.77569 102.216 7.50777C102.606 7.23985 103.073 7.10898 103.545 7.13573V7.13573Z" fill="#2D3277"/>
<path d="M96.9847 4.64087C90.4437 4.64087 90.8315 10.458 90.8315 10.458V16.3398H93.7982V10.82C93.7569 10.1352 93.8719 9.45005 94.1344 8.81628C94.548 8.04066 95.3366 7.65286 96.5258 7.65286H96.8813C97.0235 7.65286 97.1851 7.65285 97.379 7.6981V4.67319H97.1205L96.9847 4.64087Z" fill="#2D3277"/>
<path d="M86.0804 13.2373C85.9669 13.4068 85.8298 13.5592 85.6732 13.6898C85.1866 14.0236 84.6004 14.181 84.012 14.1357C83.4609 14.1687 82.9123 14.0383 82.4349 13.7609C82.0485 13.5043 81.7348 13.1524 81.5242 12.7391C81.3136 12.3258 81.2132 11.8651 81.2327 11.4017H89.4478C89.4703 10.6547 89.4357 9.90706 89.3444 9.16532C89.2283 8.32883 88.9208 7.53038 88.446 6.832C87.9686 6.1055 87.2967 5.5277 86.5069 5.16442C85.6703 4.80521 84.7673 4.6268 83.8569 4.64088C83.1133 4.61089 82.3715 4.73428 81.6776 5.00338C80.9837 5.27247 80.3527 5.68152 79.8237 6.20504C78.7895 7.24566 78.2725 8.73873 78.2725 10.6972C78.2725 12.7784 78.8456 14.2866 79.9918 15.2216C81.1098 16.1374 82.5152 16.6295 83.9603 16.6113C84.7449 16.6571 85.5302 16.5336 86.2629 16.2492C86.9956 15.9648 87.6586 15.5262 88.2068 14.9631C88.6894 14.4887 89.0431 13.8992 89.2345 13.2502L86.0804 13.2373ZM82.0924 7.71104C82.3251 7.48801 82.6014 7.31548 82.9039 7.20425C83.2065 7.09303 83.5287 7.04552 83.8505 7.06469C84.4894 7.0437 85.1134 7.26015 85.6021 7.67226C85.8461 7.90005 86.0413 8.17508 86.1757 8.48064C86.3102 8.78619 86.3811 9.1159 86.3841 9.44971H81.3038C81.3761 8.80132 81.6522 8.19257 82.0924 7.71104V7.71104Z" fill="#2D3277"/>
<path d="M77.0709 16.3138H74.3627V9.48833C74.3931 9.21418 74.3635 8.93668 74.2759 8.67513C74.1883 8.41358 74.0448 8.17424 73.8553 7.97374C73.6659 7.77324 73.4351 7.61638 73.1789 7.51406C72.9228 7.41174 72.6474 7.36641 72.372 7.38123C72.0953 7.37274 71.8199 7.42185 71.5633 7.52543C71.3066 7.62901 71.0743 7.7848 70.881 7.98292C70.6878 8.18104 70.5378 8.41716 70.4406 8.67632C70.3435 8.93547 70.3012 9.21199 70.3166 9.48833V16.3138H67.6213V9.48833C67.6537 9.21545 67.626 8.93878 67.5404 8.67768C67.4547 8.41657 67.313 8.17732 67.1253 7.97665C66.9375 7.77598 66.7082 7.61873 66.4534 7.51588C66.1986 7.41304 65.9244 7.36708 65.6499 7.38123C65.3728 7.37075 65.0965 7.4185 64.8389 7.52138C64.5813 7.62426 64.3482 7.78 64.1545 7.97854C63.9608 8.17709 63.8109 8.41403 63.7145 8.67408C63.618 8.93413 63.5772 9.21152 63.5945 9.48833V16.3138H60.8799V9.55296C60.8799 6.73488 62.7478 4.60194 65.6499 4.60194C66.2945 4.58551 66.934 4.7188 67.5183 4.99133C68.1026 5.26386 68.6158 5.6682 69.0174 6.17256C69.4271 5.67573 69.9427 5.27683 70.5265 5.00507C71.1102 4.73331 71.7474 4.59557 72.3914 4.60194C75.3452 4.60194 77.0903 6.64439 77.0903 9.55296L77.0709 16.3138Z" fill="#2D3277"/>
<path d="M131.609 1.07285C131.609 1.07285 128.623 0.756143 128.623 3.16056V6.33413C128.306 5.81613 127.861 5.38869 127.331 5.09314C126.774 4.78372 126.145 4.6276 125.508 4.6407C124.827 4.61688 124.15 4.75435 123.532 5.0419C122.914 5.32946 122.373 5.75895 121.953 6.29535C121.015 7.64426 120.559 9.2703 120.66 10.9103C120.596 12.3972 121.076 13.8565 122.011 15.0146C122.91 16.0811 124.674 16.5464 126.238 16.5464C131.706 16.5464 131.642 11.8604 131.642 11.8604L131.609 1.07285ZM128.055 13.1983C127.839 13.5076 127.547 13.7558 127.207 13.9189C126.868 14.082 126.492 14.1544 126.115 14.1291C125.749 14.1515 125.383 14.0765 125.055 13.9119C124.727 13.7474 124.449 13.4989 124.248 13.1919C123.803 12.4054 123.59 11.509 123.633 10.6065C123.604 9.75754 123.815 8.91757 124.241 8.18269C124.437 7.8618 124.717 7.60064 125.051 7.42748C125.385 7.25431 125.76 7.17573 126.135 7.20023C126.682 7.19237 127.213 7.38556 127.628 7.74317C128.326 8.33135 128.669 9.39782 128.669 10.7745C128.716 11.628 128.497 12.4751 128.042 13.1983H128.055Z" fill="#2D3277"/>
<path d="M78.7705 22.1504H81.0069L76.9672 33.5714H73.9229L69.922 22.1504H73.102L75.3772 30.1846L77.4002 23.1911C77.4698 22.8842 77.6453 22.6116 77.8959 22.4213C78.1465 22.2309 78.4562 22.1351 78.7705 22.1504V22.1504ZM87.3669 21.8467H87.619V24.8974L87.1213 24.8586C86.9727 24.8586 86.8563 24.8586 86.7658 24.8586C85.5701 24.8586 84.7621 25.2464 84.3549 26.0285C84.0841 26.6692 83.9647 27.3637 84.0059 28.0581V33.5326H81.0133V27.7155C81.0133 27.7155 80.619 21.866 87.2247 21.866L87.3669 21.8467ZM99.0464 26.3711C98.9274 25.5354 98.6202 24.7375 98.148 24.0378C97.6755 23.307 97.0022 22.728 96.209 22.3702C95.3738 22.0057 94.4701 21.825 93.5589 21.8402C92.8146 21.812 92.0723 21.9362 91.3776 22.2052C90.6829 22.4741 90.0506 22.8822 89.5193 23.4044C88.4851 24.4514 87.968 25.9445 87.968 27.9288C87.968 30.01 88.5433 31.5225 89.6873 32.4532C90.8085 33.3681 92.2154 33.8599 93.6624 33.8429C94.447 33.8891 95.2324 33.7658 95.9652 33.4814C96.6979 33.197 97.3609 32.7582 97.9089 32.1947C98.3894 31.7176 98.7446 31.1293 98.943 30.4819H95.7888C95.6754 30.6494 95.5382 30.7996 95.3816 30.9279C94.8931 31.2752 94.2991 31.442 93.7011 31.3997C93.1479 31.4328 92.5972 31.3024 92.1176 31.0248C91.7334 30.7616 91.4234 30.4039 91.2174 29.9862C91.0113 29.5685 90.9163 29.1048 90.9412 28.6398H99.1563C99.1769 27.8862 99.1402 27.1321 99.0464 26.384V26.3711ZM90.9994 26.9528C91.0668 26.3005 91.3408 25.6868 91.7815 25.2012C92.0159 24.9786 92.2933 24.8065 92.5968 24.6953C92.9003 24.5841 93.2233 24.5363 93.546 24.5549C94.1849 24.5339 94.8089 24.7503 95.2976 25.1624C95.5418 25.3914 95.7371 25.6676 95.8715 25.9742C96.0059 26.2808 96.0767 26.6116 96.0797 26.9463L90.9994 26.9528ZM63.6071 18.156V33.5326H60.7891V20.3213C60.7891 18.0526 63.6071 18.1689 63.6071 18.1689V18.156ZM65.9146 22.1375H68.9137V33.5326H65.9017L65.9146 22.1375ZM65.9146 18.4275H68.9137V21.4071H65.9082L65.9146 18.4275Z" fill="#2D3277"/>
</g>
<defs>
<clipPath id="clip0_4875_29553">
<rect width="144" height="36.6674" fill="white"/>
</clipPath>
</defs>
</svg>
