<?xml version="1.0" encoding="utf-8"?>
<!-- Generator: Adobe Illustrator 19.1.0, SVG Export Plug-In . SVG Version: 6.00 Build 0)  -->
<svg version="1.1" id="Layer_1" xmlns="http://www.w3.org/2000/svg" xmlns:xlink="http://www.w3.org/1999/xlink" x="0px" y="0px"
	 viewBox="0 0 586.9 183.1" style="enable-background:new 0 0 586.9 183.1;" xml:space="preserve">
<style type="text/css">
	.st0{fill:#FFFFFF;}
	.st1{fill:#58595B;}
</style>
<g>
	<g>
		<path class="st0" d="M15.8,0l31.4,56.8h0.6L80.8,0h8.3L51.2,65.6v42.2h-14V66.9L0,0H15.8z"/>
		<path class="st0" d="M98.9,76l-13.5,31.7h-7.1L123.9,0h7.7l50.2,107.7h-14.9L152,76H98.9z M124.6,17.2H124l-22.2,51.9h46.9
			L124.6,17.2z"/>
		<path class="st0" d="M281.6,0l-68.3,99.3h70.9v8.5H191l68.9-99.3h-65.1V0H281.6z"/>
		<path class="st0" d="M307.3,0h38.6c5.3,0,10,0.8,14,2.4c4,1.6,7.2,3.6,9.7,6.1c2.5,2.5,4.4,5.2,5.6,8.2c1.2,3,1.9,5.9,1.9,8.8
			c0,3.3-0.7,6.4-2.2,9.3c-1.4,2.9-3.4,5.5-5.8,7.7c-2.4,2.2-5.2,4-8.4,5.4c-3.2,1.4-6.6,2.1-10.2,2.1v0.6c2.3,0.1,5.2,0.5,8.9,1.1
			c3.7,0.6,7.3,1.8,10.8,3.7c3.5,1.8,6.5,4.5,9.1,8c2.6,3.5,3.8,8.2,3.8,14c0,3.7-0.6,7.4-1.9,11c-1.3,3.6-3.4,6.9-6.3,9.8
			c-2.9,2.9-6.7,5.2-11.4,7c-4.7,1.8-10.6,2.7-17.5,2.7h-38.8V0z M339.8,47.1c3.1,0,6-0.5,8.7-1.5c2.7-1,5.1-2.5,7.2-4.3
			c2.1-1.8,3.7-4.1,4.9-6.6c1.2-2.6,1.8-5.3,1.8-8.3c0-2.4-0.4-4.7-1.2-7.1c-0.8-2.4-2.1-4.5-3.9-6.3c-1.8-1.8-4.1-3.3-6.9-4.5
			c-2.8-1.1-6.2-1.7-10.2-1.7h-18.8v40.3H339.8z M343.7,100.9c3.3,0,6.4-0.5,9.3-1.5c2.9-1,5.5-2.4,7.6-4.4c2.2-1.9,3.9-4.3,5.2-7.1
			c1.3-2.8,1.9-5.9,1.9-9.5c0-3.3-0.6-6.4-1.8-9.4c-1.2-3-3-5.6-5.4-7.8c-2.4-2.3-5.5-4.1-9.2-5.4c-3.7-1.3-8.1-2-13.1-2h-17v47.1
			H343.7z"/>
		<path class="st0" d="M475.5,0v8.5h-55.5v38.6h47.7v7.1h-47.7v45.1h55.5v8.5h-69.6V0H475.5z"/>
		<path class="st0" d="M498.6,0h14v60.6L570.3,0h7.7l-39.1,41.7l48,66h-16L530,51.2l-17.4,18.6v37.9h-14V0z"/>
	</g>
	<g>
		<g>
			<path class="st1" d="M151.1,173.5l-3.8,9h-2l12.9-30.6h2.2l14.2,30.6h-4.2l-4.2-9H151.1z M158.4,156.8h-0.2l-6.3,14.7h13.3
				L158.4,156.8z"/>
			<path class="st1" d="M181.6,182.5V152h10c2.4,0,4.6,0.4,6.6,1.2c2,0.8,3.7,1.8,5.2,3.2c1.4,1.4,2.6,3,3.4,4.8
				c0.8,1.9,1.2,3.9,1.2,6c0,2.2-0.4,4.3-1.2,6.2c-0.8,1.9-2,3.5-3.4,4.9c-1.4,1.4-3.1,2.4-5,3.2c-1.9,0.8-4,1.1-6.2,1.1H181.6z
				 M185.6,180.6h4.8c2.4,0,4.4-0.4,6.1-1.2c1.7-0.8,3-1.8,4.1-3.1c1.1-1.3,1.9-2.7,2.4-4.3c0.5-1.6,0.7-3.2,0.7-4.7
				c0-1.7-0.3-3.4-0.9-5c-0.6-1.6-1.4-3-2.5-4.3c-1.1-1.2-2.5-2.2-4.2-2.9c-1.7-0.7-3.6-1.1-5.7-1.1h-4.8V180.6z"/>
			<path class="st1" d="M215.3,152l10.5,25.2h0.2l10.2-25.2h2.3L226,182.5h-2.6L210.6,152H215.3z"/>
			<path class="st1" d="M242.9,162c0.6-1.9,1.6-3.6,2.9-5.1c1.3-1.6,3-2.8,5.1-3.9c2.1-1,4.5-1.5,7.4-1.5c2.9,0,5.4,0.5,7.6,1.6
				c2.1,1,3.9,2.3,5.3,3.9c1.4,1.6,2.4,3.3,3.1,5.1c0.7,1.8,1,3.6,1,5.2c0,1.1-0.2,2.2-0.5,3.4c-0.3,1.2-0.8,2.4-1.4,3.6
				c-0.6,1.2-1.4,2.3-2.3,3.4c-0.9,1.1-2,2-3.3,2.8c-1.3,0.8-2.7,1.5-4.3,1.9c-1.6,0.5-3.4,0.7-5.3,0.7c-2.9,0-5.4-0.5-7.4-1.6
				c-2.1-1-3.8-2.3-5.1-3.9c-1.3-1.6-2.3-3.3-2.9-5.1c-0.6-1.8-0.9-3.6-0.9-5.2C241.9,165.6,242.3,163.8,242.9,162z M247.2,172.9
				c0.6,1.7,1.5,3.2,2.6,4.4c1.1,1.2,2.4,2.2,3.9,2.9c1.5,0.7,3.1,1,4.9,1c1.7,0,3.3-0.3,4.9-1c1.5-0.7,2.9-1.6,4-2.9
				c1.2-1.2,2.1-2.7,2.7-4.4c0.7-1.7,1-3.6,1-5.6c0-2-0.3-3.9-1-5.6c-0.7-1.7-1.6-3.2-2.7-4.4c-1.1-1.2-2.5-2.2-4-2.9
				c-1.5-0.7-3.2-1-4.9-1c-1.7,0-3.4,0.3-4.9,1c-1.5,0.7-2.8,1.6-3.9,2.9c-1.1,1.2-2,2.7-2.6,4.4c-0.6,1.7-0.9,3.6-0.9,5.6
				C246.2,169.3,246.5,171.2,247.2,172.9z"/>
			<path class="st1" d="M310.6,182.5h-3.7v-1.8c-1.1,0.6-2.5,1.1-4.2,1.6c-1.7,0.5-3.6,0.7-5.8,0.7c-2.9,0-5.4-0.5-7.5-1.4
				c-2.1-0.9-3.8-2.1-5.2-3.7c-1.4-1.5-2.4-3.3-3-5.2c-0.7-1.9-1-3.9-1-6c0-2.4,0.4-4.6,1.3-6.5c0.8-1.9,2-3.5,3.5-4.8
				c1.5-1.3,3.3-2.3,5.4-3c2.1-0.7,4.4-1,6.8-1c2.2,0,4,0.2,5.6,0.7c1.6,0.5,2.9,1.1,4,1.8c1.1,0.7,1.9,1.4,2.6,2.2
				c0.6,0.8,1.1,1.5,1.3,2.2h-3.1c-0.2-0.6-0.6-1.2-1.2-1.8c-0.6-0.6-1.4-1.1-2.3-1.6c-0.9-0.5-2-0.8-3.2-1.1
				c-1.2-0.3-2.5-0.4-3.8-0.4c-2.1,0-3.9,0.3-5.4,1c-1.6,0.7-2.9,1.6-4,2.8c-1.1,1.2-1.9,2.7-2.4,4.4c-0.5,1.7-0.8,3.5-0.8,5.5
				c0,2,0.3,3.9,0.9,5.6c0.6,1.7,1.4,3.2,2.6,4.4c1.1,1.2,2.6,2.2,4.3,2.9c1.7,0.7,3.7,1,6,1c1.8,0,3.3-0.2,4.7-0.6
				c1.4-0.4,2.7-1,4-1.9v-7.9H302v-1.8h8.6V182.5z"/>
			<path class="st1" d="M321.3,173.5l-3.8,9h-2l12.9-30.6h2.2l14.2,30.6h-4.2l-4.2-9H321.3z M328.6,156.8h-0.2l-6.3,14.7h13.3
				L328.6,156.8z"/>
			<path class="st1" d="M351.8,182.5V152h10c2.4,0,4.6,0.4,6.6,1.2c2,0.8,3.7,1.8,5.2,3.2c1.4,1.4,2.6,3,3.4,4.8
				c0.8,1.9,1.2,3.9,1.2,6c0,2.2-0.4,4.3-1.2,6.2c-0.8,1.9-2,3.5-3.4,4.9c-1.4,1.4-3.1,2.4-5,3.2c-1.9,0.8-4,1.1-6.2,1.1H351.8z
				 M355.7,180.6h4.8c2.4,0,4.4-0.4,6.1-1.2c1.7-0.8,3-1.8,4.1-3.1c1.1-1.3,1.9-2.7,2.3-4.3c0.5-1.6,0.7-3.2,0.7-4.7
				c0-1.7-0.3-3.4-0.9-5c-0.6-1.6-1.4-3-2.6-4.3c-1.1-1.2-2.5-2.2-4.2-2.9c-1.7-0.7-3.6-1.1-5.7-1.1h-4.8V180.6z"/>
			<path class="st1" d="M382.6,162c0.6-1.9,1.6-3.6,2.9-5.1c1.3-1.6,3-2.8,5.1-3.9c2.1-1,4.5-1.5,7.4-1.5c2.9,0,5.4,0.5,7.6,1.6
				c2.1,1,3.9,2.3,5.3,3.9c1.4,1.6,2.4,3.3,3.1,5.1c0.7,1.8,1,3.6,1,5.2c0,1.1-0.2,2.2-0.5,3.4c-0.3,1.2-0.8,2.4-1.4,3.6
				c-0.6,1.2-1.4,2.3-2.3,3.4c-0.9,1.1-2,2-3.3,2.8c-1.3,0.8-2.7,1.5-4.3,1.9c-1.6,0.5-3.4,0.7-5.3,0.7c-2.9,0-5.4-0.5-7.4-1.6
				c-2.1-1-3.8-2.3-5.1-3.9c-1.3-1.6-2.3-3.3-2.9-5.1c-0.6-1.8-0.9-3.6-0.9-5.2C381.7,165.6,382,163.8,382.6,162z M386.9,172.9
				c0.6,1.7,1.5,3.2,2.6,4.4c1.1,1.2,2.4,2.2,3.9,2.9c1.5,0.7,3.1,1,4.8,1c1.7,0,3.3-0.3,4.9-1c1.5-0.7,2.9-1.6,4-2.9
				c1.1-1.2,2.1-2.7,2.7-4.4c0.7-1.7,1-3.6,1-5.6c0-2-0.3-3.9-1-5.6c-0.7-1.7-1.6-3.2-2.7-4.4c-1.2-1.2-2.5-2.2-4-2.9
				c-1.5-0.7-3.2-1-4.9-1c-1.7,0-3.4,0.3-4.8,1c-1.5,0.7-2.8,1.6-3.9,2.9c-1.1,1.2-2,2.7-2.6,4.4c-0.6,1.7-0.9,3.6-0.9,5.6
				C386,169.3,386.3,171.2,386.9,172.9z"/>
			<path class="st1" d="M421.9,174.8c0,0.5,0.1,1.1,0.4,1.8c0.2,0.7,0.6,1.4,1.2,2.1c0.6,0.7,1.4,1.2,2.5,1.7
				c1.1,0.5,2.6,0.7,4.4,0.7c2.3,0,4.1-0.4,5.5-1.3c1.4-0.9,2.1-2.3,2.1-4.1c0-1.5-0.4-2.7-1.3-3.6c-0.9-0.9-2-1.7-3.3-2.3
				c-1.3-0.6-2.8-1.2-4.3-1.7c-1.5-0.5-3-1.1-4.3-1.8c-1.3-0.7-2.4-1.6-3.3-2.6c-0.9-1-1.3-2.4-1.3-4.1c0-1.3,0.3-2.5,0.8-3.5
				c0.5-1,1.3-1.9,2.2-2.5c0.9-0.7,2-1.2,3.2-1.5c1.2-0.4,2.5-0.5,3.8-0.5c1.3,0,2.5,0.2,3.7,0.5c1.2,0.3,2.2,0.8,3.2,1.4
				c0.9,0.6,1.7,1.3,2.3,2.2c0.6,0.9,1,1.8,1.2,2.9h-3c-0.2-1.7-1-3-2.3-3.8c-1.3-0.8-2.9-1.2-4.8-1.2c-1.1,0-2.1,0.1-3,0.4
				c-0.9,0.3-1.6,0.6-2.2,1.1c-0.6,0.5-1.1,1-1.4,1.6c-0.3,0.6-0.5,1.3-0.5,2c0,1.3,0.5,2.3,1.4,3c0.9,0.8,2,1.4,3.4,2
				c1.4,0.6,2.8,1.1,4.4,1.7c1.6,0.5,3.1,1.2,4.4,1.9c1.4,0.8,2.5,1.7,3.4,2.9c0.9,1.2,1.4,2.6,1.4,4.4c0,1.3-0.3,2.5-0.8,3.6
				s-1.3,2-2.2,2.8c-1,0.8-2.1,1.3-3.5,1.7c-1.4,0.4-2.9,0.6-4.6,0.6c-1.7,0-3.2-0.2-4.6-0.6c-1.4-0.4-2.6-0.9-3.7-1.7
				c-1-0.7-1.9-1.6-2.5-2.6c-0.6-1-0.9-2.2-1-3.4H421.9z"/>
		</g>
	</g>
</g>
</svg>
